<svg xmlns="http://www.w3.org/2000/svg" width="21" height="18" viewBox="0 0 21 18"><g><g><path d="M19.746 1.56a.84.84 0 0 1 .84.84v5.042a.84.84 0 0 1-.84.84h-5.041a.84.84 0 0 1 0-1.68h2.922l1.544 1.45a.84.84 0 1 0 1.15-1.224l-1.415-1.33V2.4a.84.84 0 0 1 .84-.84zm-2.119 5.042l-2.355-2.213A6.723 6.723 0 0 0 4.162 6.88a.84.84 0 0 1-1.585-.56 8.403 8.403 0 0 1 13.855-3.147l2.474 2.325v1.104zM.42 10.803c0 .223.09.446.265.61l1.416 1.33v3.102a.84.84 0 1 1-1.681 0zm.84-.84h.059a.839.839 0 1 0-.059 0zm5.042 0a.84.84 0 1 1 0 1.68H3.384L1.836 10.19a.837.837 0 0 0-.518-.226zm-4.201 1.68v1.1l2.473 2.325a8.403 8.403 0 0 0 13.855-3.146.84.84 0 1 0-1.584-.56 6.723 6.723 0 0 1-11.11 2.49l-2.351-2.208z"/></g></g></svg>