<svg xmlns="http://www.w3.org/2000/svg" width="21" height="18" viewBox="0 0 21 18"><g><g><g><g><path d="M14.83 7.279a.917.917 0 0 0-1.297 0l-2.615 2.614a1.745 1.745 0 0 0-2.148 1.7c0 .964.783 1.747 1.746 1.747a1.75 1.75 0 0 0 1.7-2.15l2.614-2.615a.917.917 0 0 0 0-1.296z"/></g></g></g><g><g><g><path d="M17.966 3.77C14.034-.164 7.634-.164 3.699 3.77.304 7.166-.223 12.525 2.448 16.511a.917.917 0 0 0 1.523-1.021 8.195 8.195 0 0 1-1.336-3.647h.862a.917.917 0 1 0 0-1.834h-.865a8.259 8.259 0 0 1 1.742-4.246l.624.624a.914.914 0 0 0 1.296 0 .917.917 0 0 0 0-1.297l-.626-.626A8.22 8.22 0 0 1 9.955 2.7v.866a.917.917 0 1 0 1.834 0v-.858a8.214 8.214 0 0 1 4.21 1.757l-.627.626a.917.917 0 0 0 1.297 1.297l.623-.623a8.254 8.254 0 0 1 1.742 4.245h-.865a.917.917 0 0 0 0 1.834h.862a8.192 8.192 0 0 1-1.336 3.647.917.917 0 1 0 1.523 1.021c2.672-3.986 2.145-9.345-1.252-12.743z"/></g></g></g><g><g><g><path d="M14.963 15.59H6.697a.917.917 0 0 0 0 1.834h8.266a.917.917 0 1 0 0-1.834z"/></g></g></g></g></svg>