<svg width="24" height="24" viewBox="0 0 24 24" fill="none" xmlns="http://www.w3.org/2000/svg">
<path fill-rule="evenodd" clip-rule="evenodd" d="M20.25 5C20.6642 5 21 5.33579 21 5.75V10.25C21 10.6642 20.6642 11 20.25 11H15.75C15.3358 11 15 10.6642 15 10.25C15 9.83579 15.3358 9.5 15.75 9.5H19.5V5.75C19.5 5.33579 19.8358 5 20.25 5Z" fill="black"/>
<path fill-rule="evenodd" clip-rule="evenodd" d="M12.1027 5.66343C10.6973 5.46856 9.26525 5.72549 8.02225 6.39552C6.77925 7.06555 5.79267 8.11236 5.21119 9.37822C4.62972 10.6441 4.48484 12.0604 4.79839 13.4138C5.11195 14.7671 5.86695 15.9842 6.94962 16.8816C8.03229 17.779 9.38397 18.308 10.801 18.3891C12.218 18.4701 13.6236 18.0987 14.8059 17.3309C15.9882 16.563 16.8832 15.4403 17.3561 14.1319C17.5066 13.7154 17.9741 13.497 18.4003 13.6441C18.8264 13.7913 19.0498 14.2483 18.8992 14.6649C18.3082 16.3004 17.1894 17.7038 15.7115 18.6636C14.2336 19.6234 12.4767 20.0876 10.7054 19.9863C8.93414 19.885 7.24453 19.2237 5.89119 18.102C4.53785 16.9802 3.59411 15.4589 3.20216 13.7672C2.81022 12.0755 2.99132 10.3051 3.71816 8.72278C4.44501 7.14045 5.67823 5.83193 7.23198 4.9944C8.78573 4.15687 10.5758 3.8357 12.3326 4.07929C14.0851 4.3223 15.7096 5.11425 16.9626 6.33616L20.7427 9.81603C21.0717 10.1189 20.8098 9.67834 20.5 10C20.1902 10.3217 20.5 10.5 19.6206 10.9809L15.8318 7.49286C15.8258 7.48731 15.8198 7.48168 15.814 7.47595C14.8106 6.49443 13.5081 5.85831 12.1027 5.66343Z" fill="black"/>
</svg>
