<svg width="24" height="24" viewBox="0 0 24 24" fill="none" xmlns="http://www.w3.org/2000/svg">
<path fill-rule="evenodd" clip-rule="evenodd" d="M19.4548 4.90912C19.9568 5.4112 19.9568 6.22524 19.4548 6.72733L6.7273 19.4548C6.22522 19.9569 5.41118 19.9569 4.90909 19.4548C4.40701 18.9527 4.40701 18.1387 4.90909 17.6366L17.6366 4.90912C18.1386 4.40703 18.9527 4.40703 19.4548 4.90912Z" fill="black"/>
<path fill-rule="evenodd" clip-rule="evenodd" d="M4.90919 4.9091C5.41128 4.40702 6.22532 4.40702 6.7274 4.9091L19.4549 17.6366C19.9569 18.1386 19.9569 18.9527 19.4549 19.4548C18.9528 19.9569 18.1387 19.9569 17.6367 19.4548L4.90919 6.72731C4.40711 6.22523 4.40711 5.41119 4.90919 4.9091Z" fill="black"/>
</svg>
